PathFileType	4	(X/Y/Z)	E:\Qualisys_Data\Carbon_Farble_Plate\Data\Amateur_Runner\S14\T3\S14T3V23_c3d.trc
DataRate	CameraRate	NumFrames	NumMarkers	Units	OrigDataRate	OrigDataStartFrame	OrigNumFrames
200.000000	200.000000	4	39	mm	200.000000	35	286
Frame#	Time	LSHO			RSHO			LICST			RICST			LASIS			LHEEL			RASIS			LTROC			RTROC			SACR			LTH1			LSK4			LTH2			LTH3			RHM5			LSK2			LTH4			RTH1			LTOE			RTH2			RTH3			RTH4			LLEP			RLEP			LSK1			LSK3			RSK1			LHM5			RSK2			LFT1			RSK3			RSK4			LLME			RLME			RTOE			RHEEL			RFT1			RFT2			LFT2			
		X1	Y1	Z1	X2	Y2	Z2	X3	Y3	Z3	X4	Y4	Z4	X5	Y5	Z5	X6	Y6	Z6	X7	Y7	Z7	X8	Y8	Z8	X9	Y9	Z9	X10	Y10	Z10	X11	Y11	Z11	X12	Y12	Z12	X13	Y13	Z13	X14	Y14	Z14	X15	Y15	Z15	X16	Y16	Z16	X17	Y17	Z17	X18	Y18	Z18	X19	Y19	Z19	X20	Y20	Z20	X21	Y21	Z21	X22	Y22	Z22	X23	Y23	Z23	X24	Y24	Z24	X25	Y25	Z25	X26	Y26	Z26	X27	Y27	Z27	X28	Y28	Z28	X29	Y29	Z29	X30	Y30	Z30	X31	Y31	Z31	X32	Y32	Z32	X33	Y33	Z33	X34	Y34	Z34	X35	Y35	Z35	X36	Y36	Z36	X37	Y37	Z37	X38	Y38	Z38	X39	Y39	Z39	

36	0.175	-2305.334716796875	1419.714721679688	-467.04248046875	-2244.4140625	1395.039794921875	-168.2940063476562	-2343.850830078125	968.2901611328124	-465.2849426269531	-2317.763916015625	963.6473388671876	-186.5732727050781	-2296.963134765625	919.093017578125	-444.0458374023438	-2564.41162109375	493.7756652832031	-373.2488403320312	-2293.380859375	922.84423828125	-207.6708984375	-2418.631591796875	842.9624633789062	-490.2083435058594	-2441.94287109375	851.3084106445312	-161.7521057128906	-2469.902099609375	966.3982543945312	-331.0733032226562	-2228.162109375	680.6327514648438	-501.7932434082031	-2359.11962890625	525.162841796875	-454.8400573730469	-2286.89794921875	634.9739990234375	-474.015625	-2158.29931640625	607.671142578125	-485.1899108886719	-2563.55712890625	82.67003631591797	-189.3859710693359	-2265.56005859375	548.5690307617188	-477.6285400390625	-2220.914306640625	562.3236694335938	-463.7737121582031	-2329.001708984375	618.742431640625	-164.4594573974609	-2480.756103515625	244.6165161132812	-389.3565063476562	-2407.1044921875	630.1294555664062	-160.6859436035156	-2338.555419921875	523.604736328125	-197.5404815673828	-2421.656005859375	531.979248046875	-185.27490234375	-2182.326416015625	535.1334838867188	-484.8577880859375	-2406.804443359375	460.509765625	-194.8254241943359	-2242.09375	470.0200500488281	-467.100341796875	-2339.511962890625	447.0726013183594	-446.7118835449219	-2447.889892578125	341.5374755859375	-197.7523193359375	-2514.592041015625	304.7389831542969	-452.0255737304688	-2518.39013671875	389.3399353027344	-190.3121185302734	-2589.04443359375	472.6346435546875	-346.6906433105469	-2513.671142578125	262.9635925292969	-217.7171630859375	-2573.8720703125	312.6514587402344	-205.6003112792969	-2514.113525390625	446.3850708007812	-428.8473815917969	-2661.457763671875	165.5844573974609	-232.8137054443359	-2488.7998046875	75.40786743164062	-253.0362548828125	-2729.71240234375	147.3134765625	-290.4633483886719	-2722.7060546875	114.3116836547852	-315.2181091308594	-2739.663330078125	127.8500366210938	-266.2045593261719	-2590.28564453125	480.7320556640625	-402.1622619628906
37	0.18	-2286.345703125	1423.757568359375	-467.3828125	-2221.656494140625	1398.893798828125	-170.2104187011719	-2322.052734375	971.5800170898438	-465.130859375	-2293.357177734375	965.73095703125	-187.2735900878906	-2275.79296875	921.7734375	-444.1617736816406	-2537.866943359375	481.2914123535156	-374.1200561523438	-2269.9326171875	925.7216796875	-207.9285888671875	-2395.362548828125	847.0677490234375	-491.6206970214844	-2420.141357421875	854.3841552734375	-162.2226867675781	-2447.43505859375	969.2244873046876	-331.7264099121094	-2202.78759765625	685.7732543945312	-501.2699890136719	-2332.93603515625	523.8036499023438	-457.3864135742188	-2259.99853515625	639.8825073242188	-472.5697021484375	-2131.875244140625	614.8677978515625	-484.6056518554688	-2561.361328125	83.95538330078125	-188.1690673828125	-2237.7236328125	550.5635375976562	-476.9258728027344	-2193.829345703125	567.7758178710938	-462.6365661621094	-2314.8359375	620.11865234375	-165.7243194580078	-2436.749755859375	237.4703063964844	-388.1277160644531	-2390.95849609375	634.1343383789062	-162.4399566650391	-2326.887451171875	525.40673828125	-198.6725006103516	-2409.802978515625	536.1525268554688	-186.0568695068359	-2154.199951171875	541.2691040039062	-483.7742614746094	-2398.2421875	464.1525268554688	-196.0765991210938	-2211.3681640625	473.8599243164062	-466.588623046875	-2307.641845703125	446.0717468261719	-446.6156005859375	-2440.32421875	345.8634033203125	-197.6610565185547	-2474.769775390625	295.1119995117188	-451.8711242675781	-2510.944580078125	394.3722229003906	-190.1420288085938	-2558.492919921875	458.8218383789062	-347.9284057617188	-2507.376953125	268.2855834960938	-216.6105651855469	-2567.11865234375	318.2438354492188	-205.2598266601562	-2481.836181640625	436.738037109375	-429.2624206542969	-2656.21826171875	171.2636108398438	-231.8819274902344	-2488.460205078125	75.22047424316406	-252.8972930908203	-2724.7099609375	155.1512908935547	-288.6264038085938	-2719.2646484375	122.5923004150391	-314.3491516113281	-2735.606201171875	135.9712066650391	-265.322265625	-2559.863037109375	466.8103332519531	-403.2389526367188
38	0.185	-2266.759521484375	1427.366088867188	-467.4349975585938	-2198.5576171875	1402.23046875	-171.5650634765625	-2300.8125	974.7645263671876	-465.5395202636719	-2269.49072265625	969.4801025390624	-188.3501586914062	-2253.200927734375	925.5779418945312	-444.4707336425781	-2505.564697265625	468.5216064453125	-374.9017944335938	-2246.28515625	927.10888671875	-207.4824981689453	-2370.980712890625	851.0120849609375	-492.4535217285156	-2396.746826171875	857.4376831054688	-161.7481536865234	-2424.042724609375	972.0296020507812	-331.1864624023438	-2176.829345703125	691.7744140625	-501.133056640625	-2304.020751953125	520.5831298828125	-457.1932373046875	-2233.970703125	644.2410888671875	-472.3699340820312	-2105.437255859375	621.1920776367188	-483.3138427734375	-2560.095947265625	84.22813415527344	-187.4638671875	-2210.19580078125	552.16455078125	-475.6448364257812	-2165.904541015625	572.6373901367188	-461.0041809082031	-2299.4267578125	622.1035766601562	-167.1069183349609	-2393.033447265625	230.4586334228516	-386.7385559082031	-2374.534912109375	637.9437866210938	-163.0604248046875	-2315.29541015625	528.0046997070312	-199.5377349853516	-2397.12939453125	541.1439819335938	-186.3662109375	-2125.451904296875	547.1668090820312	-482.4537963867188	-2388.63916015625	468.274169921875	-195.7948150634766	-2179.97509765625	476.3041687011719	-465.2153930664062	-2275.173095703125	444.3619689941406	-445.8313903808594	-2433.33935546875	350.7497253417969	-196.9682006835938	-2433.986083984375	285.5104370117188	-451.5651245117188	-2502.654541015625	400.341064453125	-190.1936645507812	-2527.625732421875	444.2339172363281	-350.56787109375	-2500.71337890625	273.3727416992188	-215.6437225341797	-2559.70703125	324.7164306640625	-204.7245483398438	-2449.677734375	427.2227172851562	-430.2678833007812	-2650.54833984375	177.4731750488281	-230.6314392089844	-2487.7431640625	74.70527648925781	-252.3448028564453	-2718.7783203125	163.6283721923828	-286.9604797363281	-2714.764892578125	131.6558227539062	-313.3488464355469	-2730.916259765625	144.3619995117188	-264.1884460449219	-2529.320068359375	452.5717163085938	-403.4381713867188
39	0.19	-2247.3447265625	1431.523071289062	-467.9109497070312	-2176.294677734375	1406.40869140625	-173.4874420166016	-2273.900390625	978.0721435546876	-466.5543518066406	-2246.005126953125	972.6731567382812	-188.7455444335938	-2230.08935546875	929.2179565429688	-444.5355529785156	-2475.596923828125	455.0617370605469	-375.7865600585938	-2222.958251953125	930.2586669921876	-209.2061614990234	-2347.13916015625	855.4596557617188	-493.6038208007812	-2374.407470703125	860.9969482421875	-161.8664398193359	-2401.5556640625	975.133544921875	-331.5893249511719	-2151.318603515625	696.84033203125	-500.4750366210938	-2273.741943359375	516.3320922851562	-454.8869018554688	-2208.152099609375	648.89453125	-472.0997314453125	-2078.6005859375	627.6107177734375	-482.9241638183594	-2558.070556640625	84.99556732177734	-186.1950073242188	-2183.62890625	553.395263671875	-474.8656005859375	-2140.828857421875	579.08349609375	-460.8240966796875	-2283.97119140625	624.4267578125	-168.5905303955078	-2348.1650390625	223.5912628173828	-386.5264587402344	-2360.073974609375	642.6232299804688	-163.1825714111328	-2303.36181640625	530.5618286132812	-201.2778625488281	-2383.711669921875	546.4869384765625	-186.2917022705078	-2097.629150390625	552.820068359375	-481.0025939941406	-2377.83935546875	473.3257446289062	-195.1275634765625	-2149.24072265625	479.2465515136719	-464.245361328125	-2243.0546875	442.2785339355469	-445.1300964355469	-2425.033935546875	355.9376220703125	-196.3816223144531	-2392.013671875	276.3780212402344	-451.1100769042969	-2493.60693359375	406.6239013671875	-189.5478820800781	-2496.06298828125	429.714111328125	-350.3821411132812	-2493.26171875	279.658935546875	-214.8998107910156	-2551.781982421875	331.6785583496094	-203.7667388916016	-2416.695556640625	416.2515258789062	-430.4660339355469	-2644.1376953125	184.4525604248047	-229.401123046875	-2486.652587890625	74.26094818115234	-251.2021179199219	-2712.239990234375	172.5891876220703	-285.3476867675781	-2708.901123046875	140.7525482177734	-311.9442443847656	-2725.3095703125	153.6117706298828	-262.97265625	-2497.63623046875	437.3800354003906	-403.9345092773438
